Coordinates
version=1
nRows=12
nColumns=34
inDegrees=no

Units are S.I. units (second, meters, Newtons, ...)
If the header above contains a line with 'inDegrees', this indicates whether rotational values are in degrees (yes) or radians (no).

endheader
time	pelvis_tilt	pelvis_list	pelvis_rotation	pelvis_tx	pelvis_ty	pelvis_tz	hip_flexion_r	hip_adduction_r	hip_rotation_r	knee_angle_r	ankle_angle_r	subtalar_angle_r	mtp_angle_r	hip_flexion_l	hip_adduction_l	hip_rotation_l	knee_angle_l	ankle_angle_l	subtalar_angle_l	mtp_angle_l	lumbar_extension	lumbar_bending	lumbar_rotation	arm_flex_r	arm_add_r	arm_rot_r	elbow_flex_r	pro_sup_r	arm_flex_l	arm_add_l	arm_rot_l	elbow_flex_l	pro_sup_l
0.89	-0.00135838	0.041818	-0.00788911	0.926899	0.962003	-0.182479	0.487853	-0.0948064	-0.0316401	1.08645	-0.0461995	-0.313994	-0.0215795	0.132172	0.0693939	-0.279656	0.328891	0.302065	0.260825	-0.0216022	-0.200664	-0.102823	-0.110788	-0.0367122	-0.277249	0.333841	0.558526	1.89636	0.0253056	-0.23428	-0.0706158	0.896895	1.78276
0.9	-0.00231682	0.0357258	-0.00237246	0.938305	0.962465	-0.182987	0.498213	-0.0868869	-0.0322683	1.04012	-0.0291936	-0.28204	-0.021574	0.11414	0.0643044	-0.27929	0.3187	0.311761	0.276232	-0.0215968	-0.201313	-0.0942643	-0.111539	-0.0577135	-0.27954	0.330018	0.536566	1.89917	0.0477271	-0.238504	-0.0563473	0.922617	1.78926
0.91	-0.00317684	0.0303826	0.00268012	0.949751	0.962678	-0.183408	0.506444	-0.0797157	-0.0326132	0.989178	-0.0125376	-0.247434	-0.0215686	0.0961979	0.0594811	-0.280359	0.308951	0.321635	0.292541	-0.0215913	-0.201853	-0.0867434	-0.111528	-0.0794723	-0.28193	0.32534	0.518556	1.90125	0.070211	-0.242586	-0.0423996	0.947308	1.79583
0.92	-0.00384737	0.0258685	0.00737189	0.961247	0.962654	-0.18375	0.512291	-0.0735071	-0.0331864	0.93361	0.00335672	-0.21114	-0.0215631	0.0781616	0.0551058	-0.282717	0.299529	0.331591	0.309674	-0.0215858	-0.202411	-0.080323	-0.11108	-0.101767	-0.284295	0.3198	0.504394	1.90258	0.0925279	-0.246474	-0.0289891	0.970873	1.80203
0.93	-0.00425537	0.0222234	0.01181	0.972802	0.962405	-0.184022	0.515555	-0.0683939	-0.0345585	0.873436	0.0181415	-0.173913	-0.0215577	0.0598788	0.0513071	-0.286187	0.290333	0.341545	0.327511	-0.0215803	-0.203103	-0.0750146	-0.110488	-0.124383	-0.28651	0.313278	0.493923	1.90317	0.114464	-0.250132	-0.0163186	0.993225	1.80748
0.94	-0.0043484	0.0194428	0.0160926	0.984421	0.961942	-0.184232	0.516117	-0.0644011	-0.037309	0.808791	0.0315838	-0.136244	-0.0215522	0.0412483	0.0481426	-0.290573	0.281311	0.351442	0.345901	-0.0215749	-0.204023	-0.0707806	-0.110003	-0.147109	-0.288455	0.305579	0.486933	1.90313	0.13583	-0.253542	-0.00455874	1.0143	1.81192
0.95	-0.00409355	0.0174758	0.0203011	0.996107	0.961277	-0.18438	0.513968	-0.061436	-0.0419777	0.739989	0.0435925	-0.0983821	-0.0215468	0.0222356	0.0455906	-0.295677	0.272485	0.361256	0.364676	-0.0215694	-0.205242	-0.0675387	-0.109818	-0.169739	-0.290022	0.296493	0.483145	1.9026	0.156469	-0.256711	0.0061613	1.03407	1.81519
0.96	-0.00348058	0.0162294	0.0244971	1.00786	0.960418	-0.184467	0.509222	-0.0592944	-0.0490176	0.667589	0.0542167	-0.0604238	-0.0215413	0.00287972	0.0435497	-0.301299	0.263973	0.370998	0.383659	-0.0215639	-0.206803	-0.0651682	-0.110073	-0.192065	-0.291122	0.285857	0.482219	1.90173	0.176248	-0.259666	0.0157541	1.05254	1.81725
0.97	-0.00252319	0.015577	0.0287257	1.01968	0.959378	-0.184489	0.502126	-0.0576843	-0.0587544	0.592458	0.0636214	-0.0224425	-0.0215359	-0.0167062	0.041847	-0.307241	0.255987	0.380701	0.402664	-0.0215584	-0.208718	-0.0635155	-0.110863	-0.213875	-0.291695	0.273613	0.483752	1.90066	0.195057	-0.262456	0.0241652	1.06977	1.81814
0.98	-0.00125894	0.0153665	0.0330197	1.03157	0.958166	-0.184443	0.493066	-0.056266	-0.0713522	0.515817	0.0720485	0.0153672	-0.0215305	-0.0363384	0.0402544	-0.313302	0.248823	0.390418	0.421495	-0.021553	-0.21096	-0.0624027	-0.112249	-0.234945	-0.291709	0.259839	0.487288	1.89949	0.212792	-0.265136	0.0313598	1.08584	1.81793
0.99	0.000250474	0.0154301	0.037404	1.04352	0.956794	-0.184324	0.482566	-0.0547016	-0.0867904	0.439244	0.0797737	0.0525772	-0.021525	-0.0557712	0.0385112	-0.319277	0.242838	0.400205	0.439935	-0.0215475	-0.213461	-0.0616364	-0.114267	-0.255043	-0.291169	0.24476	0.492336	1.89822	0.229353	-0.267758	0.0373084	1.10087	1.8168
1	0.0019197	0.0155942	0.0418956	1.05554	0.955275	-0.18413	0.471264	-0.0527077	-0.104855	0.364648	0.0870669	0.0884763	-0.0215196	-0.0747125	0.036352	-0.324948	0.238417	0.410103	0.457721	-0.021542	-0.216112	-0.0610186	-0.116932	-0.273933	-0.290114	0.228738	0.498388	1.89672	0.244634	-0.270361	0.0419753	1.11497	1.81492
